<svg width="14" height="15" viewBox="0 0 14 15" fill="none" xmlns="http://www.w3.org/2000/svg">
<path d="M11.6725 1.97186H3.57657C3.46054 1.97186 3.34926 2.01796 3.26721 2.1C3.18516 2.18205 3.13907 2.29333 3.13907 2.40936C3.13907 2.5254 3.18516 2.63667 3.26721 2.71872C3.34926 2.80077 3.46054 2.84686 3.57657 2.84686H10.8146L1.83751 11.8244C1.79411 11.8643 1.75924 11.9126 1.73499 11.9664C1.71074 12.0201 1.6976 12.0782 1.69638 12.1372C1.69516 12.1962 1.70587 12.2548 1.72788 12.3095C1.74988 12.3642 1.78273 12.4139 1.82443 12.4556C1.86613 12.4973 1.91584 12.5302 1.97056 12.5522C2.02528 12.5742 2.08389 12.5849 2.14285 12.5837C2.20182 12.5825 2.25993 12.5693 2.31369 12.5451C2.36745 12.5208 2.41575 12.4859 2.4557 12.4425L11.4332 3.46505V10.7035C11.4332 10.8195 11.4793 10.9308 11.5613 11.0128C11.6434 11.0949 11.7547 11.141 11.8707 11.141C11.9867 11.141 12.098 11.0949 12.1801 11.0128C12.2621 10.9308 12.3082 10.8195 12.3082 10.7035V2.60799C12.308 2.43942 12.2409 2.27782 12.1218 2.15859C12.0026 2.03936 11.8411 1.97221 11.6725 1.97186Z" fill="#131836"/>
</svg>
