<svg width="16" height="17" viewBox="0 0 16 17" fill="none" xmlns="http://www.w3.org/2000/svg">
<path fill-rule="evenodd" clip-rule="evenodd" d="M6 3.44669C4.98748 3.44669 4.16667 4.2675 4.16667 5.28002C4.16667 6.29254 4.98748 7.11335 6 7.11335C7.01253 7.11335 7.83333 6.29254 7.83333 5.28002C7.83333 4.2675 7.01253 3.44669 6 3.44669ZM3.16667 5.28002C3.16667 3.71521 4.43519 2.44669 6 2.44669C7.5648 2.44669 8.83333 3.71521 8.83333 5.28002C8.83333 6.84483 7.5648 8.11335 6 8.11335C4.43519 8.11335 3.16667 6.84483 3.16667 5.28002ZM4.48555 10.3614L4.36683 10.3804C3.29135 10.552 2.5 11.4796 2.5 12.5687C2.5 12.8695 2.74385 13.1134 3.04465 13.1134H8.95533C9.25613 13.1134 9.5 12.8695 9.5 12.5687C9.5 11.4796 8.70867 10.552 7.6332 10.3804L7.51447 10.3614C6.51117 10.2013 5.48883 10.2013 4.48555 10.3614ZM4.32795 9.37389C5.43564 9.19709 6.56436 9.19709 7.67207 9.37389L7.7908 9.39282C9.35153 9.64189 10.5 10.9882 10.5 12.5687C10.5 13.4218 9.80847 14.1134 8.95533 14.1134H3.04465C2.19156 14.1134 1.5 13.4218 1.5 12.5687C1.5 10.9882 2.64845 9.64189 4.20922 9.39282L4.32795 9.37389Z" fill="#585D69"/>
<path fill-rule="evenodd" clip-rule="evenodd" d="M9.5 2.94669C9.5 2.67055 9.72387 2.44669 10 2.44669C11.5648 2.44669 12.8333 3.71521 12.8333 5.28002C12.8333 6.84483 11.5648 8.11335 10 8.11335C9.72387 8.11335 9.5 7.88949 9.5 7.61335C9.5 7.33722 9.72387 7.11335 10 7.11335C11.0125 7.11335 11.8333 6.29254 11.8333 5.28002C11.8333 4.2675 11.0125 3.44669 10 3.44669C9.72387 3.44669 9.5 3.22283 9.5 2.94669ZM10.3275 9.86762C10.3275 9.59149 10.5513 9.36762 10.8275 9.36762H11.4729C11.5793 9.36762 11.6857 9.37602 11.7908 9.39282C13.3515 9.64189 14.5 10.9882 14.5 12.5687C14.5 13.4218 13.8085 14.1134 12.9553 14.1134H11.5933C11.3171 14.1134 11.0933 13.8895 11.0933 13.6134C11.0933 13.3372 11.3171 13.1134 11.5933 13.1134H12.9553C13.2561 13.1134 13.5 12.8695 13.5 12.5687C13.5 11.4796 12.7087 10.552 11.6332 10.3804C11.5803 10.3719 11.5265 10.3676 11.4729 10.3676H10.8275C10.5513 10.3676 10.3275 10.1438 10.3275 9.86762Z" fill="#585D69"/>
</svg>
